<mxfile host="app.diagrams.net" agent="Mozilla/5.0 (Windows NT 10.0; Win64; x64) AppleWebKit/537.36 (KHTML, like Gecko) Chrome/137.0.0.0 Safari/537.36" version="27.0.6">
  <diagram name="Page-1" id="lwQXRpGHXBCCs9l4Dj0U">
    <mxGraphModel dx="2453" dy="935" grid="0" gridSize="10" guides="1" tooltips="1" connect="1" arrows="1" fold="1" page="1" pageScale="1" pageWidth="850" pageHeight="1100" math="0" shadow="0">
      <root>
        <mxCell id="0" />
        <mxCell id="1" parent="0" />
        <mxCell id="SA-Ay3tSNWgj5w2SH-CG-1" value="&lt;font style=&quot;font-size: 22px;&quot;&gt;BC&lt;/font&gt;" style="rounded=0;whiteSpace=wrap;html=1;fillColor=#fff2cc;strokeColor=#d6b656;" parent="1" vertex="1">
          <mxGeometry x="109" y="86" width="90" height="40" as="geometry" />
        </mxCell>
        <mxCell id="SA-Ay3tSNWgj5w2SH-CG-7" value="&lt;font style=&quot;font-size: 20px;&quot;&gt;孔隙率高&lt;/font&gt;" style="rounded=0;whiteSpace=wrap;html=1;align=center;verticalAlign=middle;" parent="1" vertex="1">
          <mxGeometry x="-41" y="194" width="180" height="35" as="geometry" />
        </mxCell>
        <mxCell id="SA-Ay3tSNWgj5w2SH-CG-8" value="&lt;font style=&quot;font-size: 20px;&quot;&gt;吸附活性位点较少&lt;/font&gt;" style="rounded=0;whiteSpace=wrap;html=1;align=center;verticalAlign=middle;" parent="1" vertex="1">
          <mxGeometry x="169" y="194" width="180" height="35" as="geometry" />
        </mxCell>
        <mxCell id="SA-Ay3tSNWgj5w2SH-CG-12" value="" style="endArrow=classic;startArrow=classic;html=1;rounded=0;exitX=0.5;exitY=0;exitDx=0;exitDy=0;" parent="1" source="SA-Ay3tSNWgj5w2SH-CG-7" target="SA-Ay3tSNWgj5w2SH-CG-8" edge="1">
          <mxGeometry width="50" height="50" relative="1" as="geometry">
            <mxPoint x="69" y="193.7" as="sourcePoint" />
            <mxPoint x="149" y="196" as="targetPoint" />
            <Array as="points">
              <mxPoint x="49" y="156" />
              <mxPoint x="259" y="156" />
            </Array>
          </mxGeometry>
        </mxCell>
        <mxCell id="SA-Ay3tSNWgj5w2SH-CG-19" value="缺点" style="edgeLabel;html=1;align=center;verticalAlign=middle;resizable=0;points=[];fontSize=20;" parent="SA-Ay3tSNWgj5w2SH-CG-12" vertex="1" connectable="0">
          <mxGeometry x="0.821" y="-2" relative="1" as="geometry">
            <mxPoint x="2" y="-4" as="offset" />
          </mxGeometry>
        </mxCell>
        <mxCell id="SA-Ay3tSNWgj5w2SH-CG-20" value="优点" style="edgeLabel;html=1;align=center;verticalAlign=middle;resizable=0;points=[];fontSize=20;" parent="SA-Ay3tSNWgj5w2SH-CG-12" vertex="1" connectable="0">
          <mxGeometry x="-0.7824" relative="1" as="geometry">
            <mxPoint as="offset" />
          </mxGeometry>
        </mxCell>
        <mxCell id="SA-Ay3tSNWgj5w2SH-CG-15" value="" style="endArrow=none;html=1;rounded=0;entryX=0.5;entryY=1;entryDx=0;entryDy=0;" parent="1" target="SA-Ay3tSNWgj5w2SH-CG-1" edge="1">
          <mxGeometry width="50" height="50" relative="1" as="geometry">
            <mxPoint x="154" y="156" as="sourcePoint" />
            <mxPoint x="159" y="196" as="targetPoint" />
          </mxGeometry>
        </mxCell>
        <mxCell id="SA-Ay3tSNWgj5w2SH-CG-69" value="" style="edgeStyle=orthogonalEdgeStyle;rounded=0;orthogonalLoop=1;jettySize=auto;html=1;" parent="1" source="SA-Ay3tSNWgj5w2SH-CG-25" target="SA-Ay3tSNWgj5w2SH-CG-68" edge="1">
          <mxGeometry relative="1" as="geometry" />
        </mxCell>
        <mxCell id="SA-Ay3tSNWgj5w2SH-CG-25" value="&lt;font style=&quot;font-size: 20px;&quot;&gt;热碱处理污染环境&lt;/font&gt;" style="rounded=0;whiteSpace=wrap;html=1;align=center;verticalAlign=middle;" parent="1" vertex="1">
          <mxGeometry x="169" y="229" width="180" height="35" as="geometry" />
        </mxCell>
        <mxCell id="SA-Ay3tSNWgj5w2SH-CG-26" value="&lt;font style=&quot;font-size: 20px;&quot;&gt;高比表面积&lt;/font&gt;" style="rounded=0;whiteSpace=wrap;html=1;align=center;verticalAlign=middle;" parent="1" vertex="1">
          <mxGeometry x="-41" y="229" width="180" height="35" as="geometry" />
        </mxCell>
        <mxCell id="SA-Ay3tSNWgj5w2SH-CG-35" value="&lt;font style=&quot;font-size: 22px;&quot;&gt;β-FeOOH&lt;/font&gt;" style="rounded=0;whiteSpace=wrap;html=1;fillColor=#fff2cc;strokeColor=#d6b656;" parent="1" vertex="1">
          <mxGeometry x="564" y="86" width="100" height="40" as="geometry" />
        </mxCell>
        <mxCell id="SA-Ay3tSNWgj5w2SH-CG-36" value="&lt;font style=&quot;font-size: 20px;&quot;&gt;稳定性差&lt;/font&gt;" style="rounded=0;whiteSpace=wrap;html=1;align=center;verticalAlign=middle;" parent="1" vertex="1">
          <mxGeometry x="419" y="194" width="180" height="35" as="geometry" />
        </mxCell>
        <mxCell id="SA-Ay3tSNWgj5w2SH-CG-37" value="&lt;span style=&quot;font-size: 20px;&quot;&gt;表面官能团丰富&lt;/span&gt;" style="rounded=0;whiteSpace=wrap;html=1;align=center;verticalAlign=middle;" parent="1" vertex="1">
          <mxGeometry x="629" y="194" width="180" height="35" as="geometry" />
        </mxCell>
        <mxCell id="SA-Ay3tSNWgj5w2SH-CG-38" value="" style="endArrow=classic;startArrow=classic;html=1;rounded=0;exitX=0.5;exitY=0;exitDx=0;exitDy=0;" parent="1" source="SA-Ay3tSNWgj5w2SH-CG-36" target="SA-Ay3tSNWgj5w2SH-CG-37" edge="1">
          <mxGeometry width="50" height="50" relative="1" as="geometry">
            <mxPoint x="529" y="193.7" as="sourcePoint" />
            <mxPoint x="609" y="196" as="targetPoint" />
            <Array as="points">
              <mxPoint x="509" y="156" />
              <mxPoint x="719" y="156" />
            </Array>
          </mxGeometry>
        </mxCell>
        <mxCell id="SA-Ay3tSNWgj5w2SH-CG-39" value="优点" style="edgeLabel;html=1;align=center;verticalAlign=middle;resizable=0;points=[];fontSize=20;" parent="SA-Ay3tSNWgj5w2SH-CG-38" vertex="1" connectable="0">
          <mxGeometry x="0.821" y="-2" relative="1" as="geometry">
            <mxPoint x="2" y="-4" as="offset" />
          </mxGeometry>
        </mxCell>
        <mxCell id="SA-Ay3tSNWgj5w2SH-CG-40" value="缺点" style="edgeLabel;html=1;align=center;verticalAlign=middle;resizable=0;points=[];fontSize=20;" parent="SA-Ay3tSNWgj5w2SH-CG-38" vertex="1" connectable="0">
          <mxGeometry x="-0.7824" relative="1" as="geometry">
            <mxPoint as="offset" />
          </mxGeometry>
        </mxCell>
        <mxCell id="SA-Ay3tSNWgj5w2SH-CG-41" value="" style="endArrow=none;html=1;rounded=0;entryX=0.5;entryY=1;entryDx=0;entryDy=0;" parent="1" target="SA-Ay3tSNWgj5w2SH-CG-35" edge="1">
          <mxGeometry width="50" height="50" relative="1" as="geometry">
            <mxPoint x="614" y="156" as="sourcePoint" />
            <mxPoint x="619" y="196" as="targetPoint" />
          </mxGeometry>
        </mxCell>
        <mxCell id="SA-Ay3tSNWgj5w2SH-CG-42" value="&lt;font style=&quot;font-size: 20px;&quot;&gt;吸附活性位点丰富&lt;/font&gt;" style="rounded=0;whiteSpace=wrap;html=1;align=center;verticalAlign=middle;" parent="1" vertex="1">
          <mxGeometry x="629" y="229" width="180" height="35" as="geometry" />
        </mxCell>
        <mxCell id="SA-Ay3tSNWgj5w2SH-CG-43" value="&lt;font style=&quot;font-size: 20px;&quot;&gt;易团聚&lt;/font&gt;" style="rounded=0;whiteSpace=wrap;html=1;align=center;verticalAlign=middle;" parent="1" vertex="1">
          <mxGeometry x="419" y="229" width="180" height="35" as="geometry" />
        </mxCell>
        <mxCell id="SA-Ay3tSNWgj5w2SH-CG-45" value="&lt;font style=&quot;font-size: 20px;&quot;&gt;吸附后难分离&lt;/font&gt;" style="rounded=0;whiteSpace=wrap;html=1;align=center;verticalAlign=middle;" parent="1" vertex="1">
          <mxGeometry x="419" y="264" width="180" height="35" as="geometry" />
        </mxCell>
        <mxCell id="SA-Ay3tSNWgj5w2SH-CG-46" value="&lt;font style=&quot;font-size: 20px;&quot;&gt;水解反应制备&lt;/font&gt;" style="rounded=0;whiteSpace=wrap;html=1;align=center;verticalAlign=middle;" parent="1" vertex="1">
          <mxGeometry x="629" y="264" width="180" height="35" as="geometry" />
        </mxCell>
        <mxCell id="SA-Ay3tSNWgj5w2SH-CG-47" value="&lt;font style=&quot;font-size: 20px;&quot;&gt;三维网络结构&lt;/font&gt;" style="rounded=0;whiteSpace=wrap;html=1;align=center;verticalAlign=middle;" parent="1" vertex="1">
          <mxGeometry x="-41" y="264" width="180" height="35" as="geometry" />
        </mxCell>
        <mxCell id="SA-Ay3tSNWgj5w2SH-CG-56" value="" style="endArrow=none;html=1;rounded=0;entryX=0;entryY=0.5;entryDx=0;entryDy=0;" parent="1" edge="1">
          <mxGeometry width="50" height="50" relative="1" as="geometry">
            <mxPoint x="384" y="282" as="sourcePoint" />
            <mxPoint x="419" y="282" as="targetPoint" />
          </mxGeometry>
        </mxCell>
        <mxCell id="SA-Ay3tSNWgj5w2SH-CG-58" value="" style="endArrow=none;html=1;rounded=0;entryX=0;entryY=0.5;entryDx=0;entryDy=0;" parent="1" edge="1">
          <mxGeometry width="50" height="50" relative="1" as="geometry">
            <mxPoint x="384" y="246.44" as="sourcePoint" />
            <mxPoint x="419" y="246.44" as="targetPoint" />
          </mxGeometry>
        </mxCell>
        <mxCell id="SA-Ay3tSNWgj5w2SH-CG-64" value="" style="endArrow=none;html=1;rounded=0;entryX=0;entryY=0.5;entryDx=0;entryDy=0;exitX=1;exitY=0.5;exitDx=0;exitDy=0;" parent="1" source="SA-Ay3tSNWgj5w2SH-CG-8" target="SA-Ay3tSNWgj5w2SH-CG-36" edge="1">
          <mxGeometry width="50" height="50" relative="1" as="geometry">
            <mxPoint x="363" y="256" as="sourcePoint" />
            <mxPoint x="413" y="206" as="targetPoint" />
          </mxGeometry>
        </mxCell>
        <mxCell id="SA-Ay3tSNWgj5w2SH-CG-80" value="" style="edgeStyle=orthogonalEdgeStyle;rounded=0;orthogonalLoop=1;jettySize=auto;html=1;" parent="1" source="SA-Ay3tSNWgj5w2SH-CG-68" target="SA-Ay3tSNWgj5w2SH-CG-79" edge="1">
          <mxGeometry relative="1" as="geometry" />
        </mxCell>
        <mxCell id="SA-Ay3tSNWgj5w2SH-CG-68" value="&lt;font style=&quot;font-size: 20px;&quot;&gt;保留木醋杆菌（BCA）&lt;/font&gt;" style="whiteSpace=wrap;html=1;rounded=0;" parent="1" vertex="1">
          <mxGeometry x="169" y="351" width="180" height="70" as="geometry" />
        </mxCell>
        <mxCell id="SA-Ay3tSNWgj5w2SH-CG-71" value="" style="edgeStyle=elbowEdgeStyle;elbow=vertical;endArrow=classic;html=1;curved=0;rounded=0;endSize=8;startSize=8;entryX=0.5;entryY=0;entryDx=0;entryDy=0;" parent="1" target="SA-Ay3tSNWgj5w2SH-CG-79" edge="1">
          <mxGeometry width="50" height="50" relative="1" as="geometry">
            <mxPoint x="384" y="212" as="sourcePoint" />
            <mxPoint x="485" y="346" as="targetPoint" />
            <Array as="points">
              <mxPoint x="442" y="319" />
            </Array>
          </mxGeometry>
        </mxCell>
        <mxCell id="SA-Ay3tSNWgj5w2SH-CG-72" value="复合吸附剂" style="edgeLabel;html=1;align=center;verticalAlign=middle;resizable=0;points=[];fontSize=20;" parent="SA-Ay3tSNWgj5w2SH-CG-71" vertex="1" connectable="0">
          <mxGeometry x="0.4489" relative="1" as="geometry">
            <mxPoint x="-39" as="offset" />
          </mxGeometry>
        </mxCell>
        <mxCell id="SA-Ay3tSNWgj5w2SH-CG-79" value="BCA@FeOOH" style="whiteSpace=wrap;html=1;rounded=0;fontSize=20;" parent="1" vertex="1">
          <mxGeometry x="457" y="368.5" width="180" height="35" as="geometry" />
        </mxCell>
        <mxCell id="SA-Ay3tSNWgj5w2SH-CG-82" value="" style="edgeStyle=elbowEdgeStyle;elbow=vertical;endArrow=classic;html=1;curved=0;rounded=0;endSize=8;startSize=8;exitX=0.453;exitY=0.931;exitDx=0;exitDy=0;exitPerimeter=0;entryX=0.5;entryY=1;entryDx=0;entryDy=0;" parent="1" source="SA-Ay3tSNWgj5w2SH-CG-47" target="SA-Ay3tSNWgj5w2SH-CG-79" edge="1">
          <mxGeometry width="50" height="50" relative="1" as="geometry">
            <mxPoint x="19" y="471" as="sourcePoint" />
            <mxPoint x="69" y="421" as="targetPoint" />
            <Array as="points">
              <mxPoint x="41" y="441" />
            </Array>
          </mxGeometry>
        </mxCell>
        <mxCell id="SA-Ay3tSNWgj5w2SH-CG-87" value="" style="edgeStyle=elbowEdgeStyle;elbow=vertical;endArrow=classic;html=1;curved=0;rounded=0;endSize=8;startSize=8;exitX=0.5;exitY=1;exitDx=0;exitDy=0;entryX=0.5;entryY=1;entryDx=0;entryDy=0;" parent="1" source="SA-Ay3tSNWgj5w2SH-CG-46" target="SA-Ay3tSNWgj5w2SH-CG-79" edge="1">
          <mxGeometry width="50" height="50" relative="1" as="geometry">
            <mxPoint x="479" y="387" as="sourcePoint" />
            <mxPoint x="529" y="337" as="targetPoint" />
            <Array as="points">
              <mxPoint x="689" y="441" />
            </Array>
          </mxGeometry>
        </mxCell>
      </root>
    </mxGraphModel>
  </diagram>
</mxfile>
